<svg id="Layer_1" data-name="Layer 1" xmlns="http://www.w3.org/2000/svg" viewBox="0 0 24 24"><defs><style>.cls-1{fill:#fff;}</style></defs><g id="Page-1"><g id="ico-streaming"><path id="Shape" class="cls-1" d="M15.85,8.1A1.3,1.3,0,0,0,14.91,8a.86.86,0,0,0-.55.67h0l-.85,3.25-1.2,5.5a1.66,1.66,0,0,1-.55.82,1.36,1.36,0,0,1-.76.3q-.37.07-9.23,0a.84.84,0,0,0-.62.44,1,1,0,0,0,0,1h0l1.38,3a2.27,2.27,0,0,0,.78.7,1.74,1.74,0,0,0,1,.31H13a10.3,10.3,0,0,0,1.28-.24,4.25,4.25,0,0,0,1.18-.62,6.66,6.66,0,0,0,.63-.57,5.69,5.69,0,0,0,.6-.83,8.49,8.49,0,0,0,.47-1.06h0L19,12.36a3.29,3.29,0,0,0,0-1.59c-.09-.33-.67-.8-1.6-1.5ZM20.5,0H11.73a10.57,10.57,0,0,0-1.29.24A4,4,0,0,0,9.27.86a6.41,6.41,0,0,0-.64.57A6.36,6.36,0,0,0,8,2.26a9.94,9.94,0,0,0-.48,1.06h0L5.73,11.64a3.29,3.29,0,0,0,0,1.59c.08.33.67.8,1.6,1.5L8.84,15.9a1.3,1.3,0,0,0,.94.13.87.87,0,0,0,.56-.67h0l.84-3.25,1.2-5.5a1.73,1.73,0,0,1,.55-.82,1.36,1.36,0,0,1,.76-.3c.26,0,3.33,0,9.23,0a.86.86,0,0,0,.63-.44,1,1,0,0,0,0-1h0L22.16,1a2.32,2.32,0,0,0-.77-.7,1.74,1.74,0,0,0-1-.31Z"/></g></g></svg>