<?xml version="1.0" encoding="UTF-8"?>
<svg width="24px" height="24px" viewBox="0 0 24 24" version="1.1" xmlns="http://www.w3.org/2000/svg" xmlns:xlink="http://www.w3.org/1999/xlink">
    <title>Combined Shape</title>
    <g id="Symbols" stroke="none" stroke-width="1" fill="none" fill-rule="evenodd">
        <g id="Icons-/-Language" fill="#FFFFFF" fill-rule="nonzero">
            <path d="M1.45469453,15.5512791 C2.22940489,17.677846 4.11499232,19.1509822 6.28993502,19.4435722 L5.20488031,17.6338718 C4.99176919,17.2786866 5.10694298,16.8179914 5.46212818,16.6048803 C5.81731338,16.3917692 6.27800857,16.506943 6.49111969,16.8621282 L8.74111969,20.6121282 C8.95423081,20.9673134 8.83905702,21.4280086 8.48387182,21.6411197 L4.73387182,23.8911197 C4.37868662,24.1042308 3.91799143,23.989057 3.70488031,23.6338718 C3.49176919,23.2786866 3.60694298,22.8179914 3.96212818,22.6048803 L6.66286759,20.9849908 C3.70604509,20.8171874 1.08121193,18.9082667 0.0453054683,16.0647209 C-0.096477566,15.6755288 0.104087064,15.2450885 0.493279107,15.1033055 C0.88247115,14.9615224 1.3129115,15.1620871 1.45469453,15.5512791 Z M21.75,10.498 C22.9926407,10.498 24,11.5053593 24,12.748 L24,21.748 C24,22.9906407 22.9926407,23.998 21.75,23.998 L12.75,23.998 C11.5073593,23.998 10.5,22.9906407 10.5,21.748 L10.5,15.748 C10.5,15.3337864 10.8357864,14.998 11.25,14.998 C11.6642136,14.998 12,15.3337864 12,15.748 L12,21.748 C12,22.1622136 12.3357864,22.498 12.75,22.498 L21.75,22.498 C22.1642136,22.498 22.5,22.1622136 22.5,21.748 L22.5,12.748 C22.5,12.3337864 22.1642136,11.998 21.75,11.998 L15.75,11.998 C15.3357864,11.998 15,11.6622136 15,11.248 C15,10.8337864 15.3357864,10.498 15.75,10.498 L21.75,10.498 Z M17.25,13.498 C18.4926407,13.498 19.5,14.5053593 19.5,15.748 L19.5,20.248 C19.5,20.6622136 19.1642136,20.998 18.75,20.998 C18.3357864,20.998 18,20.6622136 18,20.248 L17.9997959,19.4978867 L16.4997959,19.4978867 L16.5,20.248 C16.5,20.6622136 16.1642136,20.998 15.75,20.998 C15.3357864,20.998 15,20.6622136 15,20.248 L15,15.748 C15,14.5053593 16.0073593,13.498 17.25,13.498 Z M17.25,14.998 C16.8357864,14.998 16.5,15.3337864 16.5,15.748 L16.4997959,17.9978867 L17.9997959,17.9978867 L18,15.748 C18,15.3337864 17.6642136,14.998 17.25,14.998 Z M11.25,-0.002 C12.4926407,-0.002 13.5,1.00535931 13.5,2.248 L13.5,11.248 C13.5,12.4906407 12.4926407,13.498 11.25,13.498 L2.25,13.498 C1.00735931,13.498 2.51798574e-12,12.4906407 2.51798574e-12,11.248 L2.51798574e-12,2.248 C2.51798574e-12,1.00535931 1.00735931,-0.002 2.25,-0.002 L11.25,-0.002 Z M11.25,1.498 L2.25,1.498 C1.83578644,1.498 1.5,1.83378644 1.5,2.248 L1.5,11.248 C1.5,11.6622136 1.83578644,11.998 2.25,11.998 L11.25,11.998 C11.6642136,11.998 12,11.6622136 12,11.248 L12,2.248 C12,1.83378644 11.6642136,1.498 11.25,1.498 Z M7.132,3 C7.596,3 8.008,3.066 8.368,3.198 C8.728,3.33 9.028,3.512 9.268,3.744 C9.508,3.976 9.69,4.254 9.814,4.578 C9.938,4.902 10,5.26 10,5.652 L10,5.652 L10,9.852 L8.704,9.852 L8.704,5.652 L8.69753125,5.4601875 C8.66734375,5.0270625 8.5315,4.695 8.29,4.464 C8.014,4.2 7.624,4.068 7.12,4.068 C6.92,4.068 6.728,4.092 6.544,4.14 C6.36,4.188 6.19,4.256 6.034,4.344 C5.878,4.432 5.742,4.534 5.626,4.65 C5.51,4.766 5.424,4.888 5.368,5.016 L5.368,5.016 L6.328,5.856 L6.19576,5.9184 C6.02872,6.008 5.8988,6.1232 5.806,6.264 C5.69,6.44 5.632,6.668 5.632,6.948 L5.632,6.948 L5.632,9.852 L4.336,9.852 L4.336,7.02 L4.34296,6.87816 C4.36152,6.69192 4.4172,6.5172 4.51,6.354 C4.626,6.15 4.78,5.992 4.972,5.88 L4.972,5.88 L4,5.064 L4.05016,4.90656 C4.12632,4.69792 4.2396,4.4944 4.39,4.296 C4.578,4.048 4.808,3.828 5.08,3.636 C5.352,3.444 5.662,3.29 6.01,3.174 C6.358,3.058 6.732,3 7.132,3 Z M20.2951197,0.362128183 C20.5082308,0.717313383 20.393057,1.17800857 20.0378718,1.39111969 L17.3391268,3.01012267 C20.2951352,3.17867108 22.919021,5.08737266 23.9546945,7.93027911 C24.0964776,8.31947115 23.8959129,8.7499115 23.5067209,8.89169453 C23.1175288,9.03347757 22.6870885,8.83291294 22.5453055,8.44372089 C21.7705557,6.31704589 19.884816,4.84386809 17.7097333,4.55138318 L18.7951197,6.36212818 C19.0082308,6.71731338 18.893057,7.17800857 18.5378718,7.39111969 C18.1826866,7.60423081 17.7219914,7.48905702 17.5088803,7.13387182 L15.2588803,3.38387182 C15.0457692,3.02868662 15.160943,2.56799143 15.5161282,2.35488031 L19.2661282,0.104880306 C19.6213134,-0.108230814 20.0820086,0.00694298396 20.2951197,0.362128183 Z" id="Combined-Shape"></path>
        </g>
    </g>
</svg>