<?xml version="1.0" encoding="UTF-8"?>
<svg width="20px" height="20px" viewBox="0 0 20 20" version="1.1" xmlns="http://www.w3.org/2000/svg" xmlns:xlink="http://www.w3.org/1999/xlink">
    <title>icons8-chart</title>
    <g id="Page-1" stroke="none" stroke-width="1" fill="none" fill-rule="evenodd">
        <g id="icons8-chart" fill="#000000" fill-rule="nonzero">
            <path d="M14.247449,0.416666667 C14.1087371,0.442708333 13.9923469,0.541992083 13.9413265,0.677083333 L13.5586735,1.640625 C12.4282527,1.13606792 11.1798469,0.844726667 9.87244898,0.833333333 C9.81824,0.82194 9.76084204,0.82194 9.70663265,0.833333333 C9.70184939,0.833333333 9.69866082,0.833333333 9.69387755,0.833333333 C4.60778082,0.888672083 0.483099592,5.08626292 0.408163265,10.2734375 C0.377869796,10.3613283 0.377869796,10.4589846 0.408163265,10.546875 C0.476722041,15.7747396 4.65880122,20 9.79591837,20 C14.9760841,20 19.1836735,15.7047525 19.1836735,10.4166667 C19.1836735,9.05273458 18.8966837,7.75065125 18.3928571,6.57552083 L19.3367347,6.18489583 C19.4387755,6.14420583 19.5200894,6.06282542 19.5647322,5.96028667 C19.6077808,5.8577475 19.6077808,5.7421875 19.5663265,5.63802083 C18.5746176,3.19498708 16.6964286,1.38183583 14.4770408,0.442708333 C14.4164543,0.418294167 14.3510841,0.41015625 14.2857143,0.416666667 C14.2729592,0.416666667 14.2602041,0.416666667 14.247449,0.416666667 Z M14.5280612,1.41927083 C16.2755102,2.25911458 17.7311861,3.68164083 18.6096939,5.5859375 L17.8826531,5.8984375 C17.8778698,5.8984375 17.8746812,5.8984375 17.869898,5.8984375 C17.7343751,5.88216167 17.6004465,5.9358725 17.5127551,6.04166667 C17.5127551,6.04654958 17.5127551,6.04980458 17.5127551,6.0546875 L11.6454082,8.52864583 L14.1071429,2.4609375 C14.1119261,2.45279958 14.1167094,2.44303375 14.119898,2.43489583 C14.1422196,2.39908875 14.1597576,2.36002625 14.1709184,2.31770833 C14.1820792,2.29329417 14.190051,2.265625 14.1964286,2.23958333 L14.5280612,1.41927083 Z M9.3494898,1.6796875 C9.3622449,1.6796875 9.375,1.6796875 9.3877551,1.6796875 L9.3877551,10 L1.2372449,10 C1.44132653,5.5045575 4.95057388,1.90755208 9.3494898,1.6796875 Z M10.2040816,1.6796875 C11.2818878,1.73014333 12.3022959,1.97591167 13.2397959,2.39583333 L10.5102041,9.140625 C10.4448343,9.296875 10.4783163,9.47916667 10.5963012,9.59960958 C10.7142857,9.72005208 10.8928571,9.75423167 11.0459184,9.6875 L17.6530612,6.90104167 C18.1138392,7.97688792 18.3673469,9.16666667 18.3673469,10.4166667 C18.3673469,12.6822917 17.5159441,14.7363283 16.1352041,16.2890625 L10.2040816,10.234375 L10.2040816,1.6796875 Z M1.2372449,10.8333333 L9.61734694,10.8333333 L15.5484694,16.8880208 C14.0274237,18.2975262 12.0153061,19.1666667 9.79591837,19.1666667 C5.19292082,19.1666667 1.44770408,15.4785158 1.2372449,10.8333333 Z" id="Shape"></path>
        </g>
    </g>
</svg>