<?xml version="1.0" encoding="UTF-8"?>
<svg width="17px" height="19px" viewBox="0 0 17 19" version="1.1" xmlns="http://www.w3.org/2000/svg" xmlns:xlink="http://www.w3.org/1999/xlink">
    <title>safari-pinned-tab</title>
    <g id="Page-1" stroke="none" stroke-width="1" fill="none" fill-rule="evenodd">
        <g id="safari-pinned-tab">
            <rect id="Rectangle-193" fill="#FFFFFF" x="3" y="4" width="11" height="11"></rect>
            <g id="Group" transform="translate(8.499360, 9.924480) scale(-1, 1) rotate(-180.000000) translate(-8.499360, -9.924480) translate(-0.000640, 0.924480)" fill="#DB1512">
                <path d="M15.7259122,9.42438571 L15.7259122,9.42335794 C15.7259122,8.30489112 15.7713947,7.30538827 16.6008721,5.54893544 C16.8411327,5.03916329 17.3707339,4.29094932 16.5908505,3.42248669 C15.9587209,2.79118116 15.2361403,2.89627028 14.7515077,3.17351027 C15.0297988,2.68840452 15.1343829,1.96614166 14.5025103,1.33432224 C13.6344885,0.554504463 12.8859546,1.08380418 12.3766535,1.32404458 C10.618511,2.15345209 9.62175062,2.19893075 8.50062003,2.19893075 L8.49984914,2.19893075 C7.38026033,2.19893075 6.38093032,2.15345209 4.6253575,1.32404458 C4.11502852,1.08380418 3.36675158,0.554504463 2.49898674,1.33432224 C1.86737111,1.96562777 1.97195515,2.68840452 2.24947544,3.17299639 C1.76484278,2.89549945 1.04226217,2.79118116 0.410389577,3.42248669 C-0.369236875,4.29094932 0.159850424,5.03916329 0.400368011,5.54842155 C1.22958837,7.30615909 1.2748139,8.30334947 1.2748139,9.42387182 L1.2748139,9.42438571 C1.2748139,10.5441372 1.22958837,11.5436401 0.400368011,13.3000929 C0.159850424,13.8096081 -0.369236875,14.558079 0.410389577,15.4260278 C1.04200521,16.0578472 1.76458582,15.9522442 2.24947544,15.6755181 C1.97169819,16.16011 1.86634326,16.8834006 2.49898674,17.5139353 C3.36726551,18.2950378 4.11502852,17.7649672 4.62432965,17.524213 C6.3824721,16.6953193 7.37897552,16.6498407 8.50036307,16.6498407 L8.50062003,16.6498407 C9.62046581,16.6498407 10.6192819,16.6953193 12.3758826,17.524213 C12.8859546,17.7649672 13.6344885,18.2950378 14.5025103,17.5139353 C15.133355,16.8834006 15.029028,16.16011 14.7509937,15.6755181 C15.2361403,15.9527581 15.9587209,16.058618 16.5908505,15.4260278 C17.3707339,14.558079 16.8411327,13.8096081 16.6008721,13.3008637 C15.7713947,11.5423554 15.7259122,10.545165 15.7259122,9.42438571 L15.7259122,9.42438571 Z M13.9870837,14.92448 L9.72828179,11.3509218 C9.72828179,11.3509218 9.15227231,10.7896132 8.50103871,10.7896132 C7.85033674,10.7896132 7.27352983,11.3509218 7.27352983,11.3509218 L3.01632277,14.9239485 L3.00064,14.9109257 L6.57524793,10.6530069 C6.57524793,10.6530069 7.13770111,10.0768152 7.13770111,9.42487866 C7.13770111,8.77453678 6.57524793,8.19834504 6.57524793,8.19834504 L3.00064,3.94016049 L3.01499372,3.92448 L7.27406145,7.49963282 C7.27406145,7.49963282 7.85033674,8.06120715 8.50130452,8.06120715 C9.15227231,8.06120715 9.72854759,7.49963282 9.72854759,7.49963282 L13.985223,3.92687194 L14.00064,3.94095781 L10.4270953,8.19834504 C10.4270953,8.19834504 9.86490794,8.77453678 9.86490794,9.4254102 C9.86490794,10.0768152 10.4270953,10.6530069 10.4270953,10.6530069 L14.00064,14.9095968 L13.9870837,14.92448 L13.9870837,14.92448 Z" id="Fill-2"></path>
            </g>
        </g>
    </g>
</svg>